<svg xmlns="http://www.w3.org/2000/svg" version="1.1" width="2408.6502" height="1371" viewBox="0 0 2408.6502 1371">
<title>Cav. Madonia Maurizio Assicurazioni logo (white artwork)</title>
<path transform="matrix(1,0,0,-1,1238.9551,362.6187)" d="M0 0C7.755-11.515 18.33-17.155 31.725-17.155 37.6-17.155 43.239-15.98 48.645-13.395L58.75 14.805H79.665L81.545-31.96 75.435-35.485 63.45-32.43C52.875-37.6 40.42-40.185 26.085-40.185-23.735-40.185-52.641-8.93-52.641 44.65-52.641 71.205-45.826 92.12-32.431 106.925-19.036 121.965-.235 129.485 23.5 129.485 37.835 129.485 50.524 126.666 61.1 120.791L74.495 124.081 80.84 120.555 78.725 73.79H58.045L48.175 101.52C42.3 104.81 36.189 106.455 29.845 106.455 17.154 106.455 7.05 100.815-.235 89.3-7.521 77.785-11.28 62.98-11.28 44.885-11.28 26.32-7.521 11.515 0 0" fill="#ffffff"/>
<path transform="matrix(1,0,0,-1,1383.7129,339.3535)" d="M0 0H43.71L21.62 59.455ZM-50.995-60.865V-46.765L-36.66-40.185 15.98 103.635H46.295L99.405-40.185 113.74-46.765V-60.865H44.18V-46.765L58.516-40.185 51.23-20.445H-7.52L-14.805-40.185-.47-46.765V-60.865Z" fill="#ffffff"/>
<path transform="matrix(1,0,0,-1,1481.002,235.7183)" d="M0 0H69.561V-14.1L55.226-20.68 89.771-118.675 124.315-20.68 109.98-14.1V0H160.506V-14.1L146.405-20.68 95.646-164.5H65.33L14.335-20.68 0-14.1Z" fill="#ffffff"/>
<path transform="matrix(1,0,0,-1,1675.5811,382.8286)" d="M0 0C0-12.455-7.755-19.975-20.21-19.975-32.665-19.975-40.186-12.455-40.186 0-40.186 12.455-32.665 19.975-20.21 19.975-7.285 19.975 0 12.455 0 0" fill="#ffffff"/>
<path transform="matrix(1,0,0,-1,1183.7295,641.1187)" d="M0 0 14.335 6.58V129.72L0 136.3V150.4H57.811L96.351 57.81 134.891 150.4H191.29V136.3L176.955 129.72V6.58L191.29 0V-14.1H123.846V0L138.415 6.58V105.045L99.405 8.695H74.26L35.015 104.81V6.58L49.585 0V-14.1H0Z" fill="#ffffff"/>
<path transform="matrix(1,0,0,-1,1432.5947,594.3535)" d="M0 0H43.71L21.62 59.455ZM-50.995-60.865V-46.765L-36.66-40.185 15.98 103.635H46.295L99.405-40.185 113.74-46.765V-60.865H44.181V-46.765L58.516-40.185 51.23-20.445H-7.52L-14.805-40.185-.47-46.765V-60.865Z" fill="#ffffff"/>
<path transform="matrix(1,0,0,-1,1606.0225,634.5386)" d="M0 0H24.91C48.41 0 62.51 23.265 62.51 61.57 62.51 100.11 48.41 123.14 24.91 123.14H0ZM-53.11-20.68V-6.58L-38.54 0V123.14L-53.11 129.72V143.82H24.91C49.819 143.82 69.325 136.535 83.189 121.965 97.29 107.63 104.34 87.42 104.34 61.57 104.34 35.72 97.29 15.51 83.189 .94 69.325-13.395 49.819-20.68 24.91-20.68Z" fill="#ffffff"/>
<path transform="matrix(1,0,0,-1,1803.42,510.6934)" d="M0 0C-23.735 0-37.6-23.03-37.6-62.275-37.6-101.05-23.5-124.55 0-124.55 23.5-124.55 37.601-101.05 37.601-62.275 37.601-23.03 23.735 0 0 0M58.516 .235C72.38-14.57 79.431-35.485 79.431-62.04 79.431-88.83 72.38-109.745 58.516-124.785 44.65-139.59 25.146-147.11 0-147.11-24.91-147.11-44.415-139.59-58.515-124.785-72.38-109.745-79.43-88.83-79.43-62.04-79.43-35.485-72.38-14.57-58.515 .235-44.415 15.04-24.91 22.56 0 22.56 25.146 22.56 44.65 15.04 58.516 .235" fill="#ffffff"/>
<path transform="matrix(1,0,0,-1,1943.2432,655.2188)" d="M0 0H-49.585V14.1L-35.015 20.68V143.82L-49.585 150.4V164.5H-7.52L68.855 62.98V143.82L54.285 150.4V164.5H103.87V150.4L89.3 143.82V0H68.855L-14.335 109.745V20.68L0 14.1Z" fill="#ffffff"/>
<path transform="matrix(1,0,0,-1,2055.338,490.7183)" d="M0 0H67.21V-14.1L52.875-20.68V-143.82L67.21-150.4V-164.5H0V-150.4L14.335-143.82V-20.68L0-14.1Z" fill="#ffffff"/>
<path transform="matrix(1,0,0,-1,2180.3555,594.3535)" d="M0 0H43.71L21.62 59.455ZM-50.995-60.865V-46.765L-36.66-40.185 15.98 103.635H46.295L99.405-40.185 113.74-46.765V-60.865H44.18V-46.765L58.516-40.185 51.23-20.445H-7.52L-14.805-40.185-.47-46.765V-60.865Z" fill="#ffffff"/>
<path transform="matrix(1,0,0,-1,1183.7295,896.1196)" d="M0 0 14.335 6.58V129.721L0 136.301V150.401H57.811L96.351 57.811 134.891 150.401H191.29V136.301L176.955 129.721V6.58L191.29 0V-14.1H123.846V0L138.415 6.58V105.047L99.405 8.695H74.26L35.015 104.811V6.58L49.585 0V-14.1H0Z" fill="#ffffff"/>
<path transform="matrix(1,0,0,-1,1432.5947,849.354)" d="M0 0H43.71L21.62 59.455ZM-50.995-60.865V-46.766L-36.66-40.186 15.98 103.635H46.295L99.405-40.186 113.74-46.766V-60.865H44.181V-46.766L58.516-40.186 51.23-20.445H-7.52L-14.805-40.186-.47-46.766V-60.865Z" fill="#ffffff"/>
<path transform="matrix(1,0,0,-1,1541.3985,745.7188)" d="M0 0H67.445V-14.1L53.11-20.68V-103.399C53.11-127.135 66.74-141.469 88.36-141.469 109.98-141.469 121.73-127.604 121.73-103.399V-20.68L107.16-14.1V0H156.745V-14.1L142.175-20.68V-105.985C142.175-144.29 118.675-167.084 78.49-167.084 38.305-167.084 14.57-144.29 14.57-105.985V-20.68L0-14.1Z" fill="#ffffff"/>
<path transform="matrix(1,0,0,-1,1759.2412,766.3989)" d="M0 0V-56.164H22.56C38.54-56.164 47.47-45.824 47.47-27.025 47.47-10.104 38.305 0 22.56 0ZM-53.11 6.58V20.68H23.5C63.215 20.68 87.185 3.055 87.185-27.025 87.185-47.469 78.02-61.57 59.925-69.795L83.189-122.199 99.875-129.721V-143.82H50.524L20.915-76.609H0V-123.141L14.335-129.721V-143.82H-53.11V-129.721L-38.54-123.141V0Z" fill="#ffffff"/>
<path transform="matrix(1,0,0,-1,1868.2802,745.7188)" d="M0 0H67.21V-14.1L52.875-20.68V-143.821L67.21-150.401V-164.5H0V-150.401L14.335-143.821V-20.68L0-14.1Z" fill="#ffffff"/>
<path transform="matrix(1,0,0,-1,1946.7677,910.2192)" d="M0 0V18.096L75.905 143.82H32.665L23.03 116.09 3.76 115.855 1.646 164.5H121.966V146.406L46.061 20.68H91.415L101.051 48.646H120.556L122.436 0Z" fill="#ffffff"/>
<path transform="matrix(1,0,0,-1,2080.0118,745.7188)" d="M0 0H67.21V-14.1L52.875-20.68V-143.821L67.21-150.401V-164.5H0V-150.401L14.335-143.821V-20.68L0-14.1Z" fill="#ffffff"/>
<path transform="matrix(1,0,0,-1,2237.6944,765.6939)" d="M0 0C-23.735 0-37.6-23.029-37.6-62.275-37.6-101.049-23.5-124.551 0-124.551 23.5-124.551 37.601-101.049 37.601-62.275 37.601-23.029 23.735 0 0 0M58.516 .236C72.38-14.57 79.431-35.484 79.431-62.039 79.431-88.83 72.38-109.744 58.516-124.785 44.65-139.59 25.146-147.109 0-147.109-24.91-147.109-44.415-139.59-58.515-124.785-72.38-109.744-79.43-88.83-79.43-62.039-79.43-35.484-72.38-14.57-58.515 .236-44.415 15.041-24.91 22.56 0 22.56 25.146 22.56 44.65 15.041 58.516 .236" fill="#ffffff"/>
<path transform="matrix(1,0,0,-1,1237.8237,1100.7017)" d="M0 0-17.425 40.395-34.717 0ZM5.676-13.463H-40.525L-49.634-34.848H-67.322L-25.741 57.555H-8.844L32.869-34.848H14.917Z" fill="#ffffff"/>
<path transform="matrix(1,0,0,-1,1287.8486,1125.7817)" d="M0 0 5.94 13.332C13.333 7.393 25.081 3.168 36.433 3.168 50.821 3.168 56.894 8.316 56.894 15.18 56.894 35.113 1.979 22.045 1.979 56.365 1.979 71.283 13.86 83.955 39.205 83.955 50.294 83.955 61.909 81.051 69.962 75.77L64.55 62.438C56.233 67.322 47.126 69.697 39.073 69.697 24.817 69.697 19.009 64.154 19.009 57.158 19.009 37.49 73.79 50.293 73.79 16.369 73.79 1.584 61.778-11.088 36.433-11.088 22.044-11.088 7.656-6.6 0 0" fill="#ffffff"/>
<path transform="matrix(1,0,0,-1,1384.0762,1125.7817)" d="M0 0 5.94 13.332C13.333 7.393 25.081 3.168 36.434 3.168 50.822 3.168 56.895 8.316 56.895 15.18 56.895 35.113 1.98 22.045 1.98 56.365 1.98 71.283 13.861 83.955 39.206 83.955 50.294 83.955 61.91 81.051 69.963 75.77L64.551 62.438C56.234 67.322 47.126 69.697 39.073 69.697 24.817 69.697 19.01 64.154 19.01 57.158 19.01 37.49 73.791 50.293 73.791 16.369 73.791 1.584 61.778-11.088 36.434-11.088 22.045-11.088 7.656-6.6 0 0" fill="#ffffff"/>
<path transform="matrix(1,0,0,-1,-295.6748,2185.5)" d="M1783.767 1142.353H1800.927V1049.951H1783.767Z" fill="#ffffff"/>
<path transform="matrix(1,0,0,-1,1536.7988,1089.3482)" d="M0 0C0 27.588 21.12 47.521 49.501 47.521 64.55 47.521 77.485 42.109 86.066 32.076L74.978 21.648C68.245 28.908 59.93 32.473 50.293 32.473 31.152 32.473 17.292 19.008 17.292 0 17.292-19.01 31.152-32.473 50.293-32.473 59.93-32.473 68.245-28.908 74.978-21.518L86.066-32.078C77.485-42.109 64.55-47.521 49.369-47.521 21.12-47.521 0-27.59 0 0" fill="#ffffff"/>
<path transform="matrix(1,0,0,-1,1651.1104,1095.2896)" d="M0 0V52.143H17.16V.66C17.16-18.348 25.741-26.531 40.657-26.531 55.573-26.531 64.021-18.348 64.021 .66V52.143H80.918V0C80.918-26.928 65.738-41.58 40.525-41.58 15.181-41.58 0-26.928 0 0" fill="#ffffff"/>
<path transform="matrix(1,0,0,-1,1806.4737,1057.6685)" d="M0 0H-20.065V-36.828H0C15.048-36.828 22.836-29.965 22.836-18.348 22.836-6.73 15.048 0 0 0M23.232-77.881 4.355-50.82C3.168-50.953 1.979-50.953 .792-50.953H-20.065V-77.881H-37.226V14.521H.792C25.08 14.521 40.129 2.113 40.129-18.348 40.129-32.34 33.001-42.637 20.46-47.52L41.713-77.881Z" fill="#ffffff"/>
<path transform="matrix(1,0,0,-1,1933.1925,1100.7017)" d="M0 0-17.425 40.395-34.717 0ZM5.676-13.463H-40.525L-49.634-34.848H-67.322L-25.741 57.555H-8.845L32.869-34.848H14.916Z" fill="#ffffff"/>
<path transform="matrix(1,0,0,-1,2062.8165,1121.0298)" d="M0 0V-14.52H-78.807V-3.035L-24.421 63.361H-77.883V77.883H-1.717V66.398L-56.102 0Z" fill="#ffffff"/>
<path transform="matrix(1,0,0,-1,-295.6748,2185.5)" d="M2387.396 1142.353H2404.556V1049.951H2387.396Z" fill="#ffffff"/>
<path transform="matrix(1,0,0,-1,2222.6661,1089.3482)" d="M0 0C0 18.877-13.86 32.473-32.474 32.473-51.086 32.473-64.946 18.877-64.946 0-64.946-18.877-51.086-32.473-32.474-32.473-13.86-32.473 0-18.877 0 0M-82.238 0C-82.238 27.324-61.118 47.521-32.474 47.521-3.828 47.521 17.292 27.457 17.292 0 17.292-27.457-3.828-47.521-32.474-47.521-61.118-47.521-82.238-27.324-82.238 0" fill="#ffffff"/>
<path transform="matrix(1,0,0,-1,2353.4776,1043.147)" d="M0 0V-92.402H-14.124L-65.078-29.834V-92.402H-82.106V0H-67.981L-17.028-62.57V0Z" fill="#ffffff"/>
<path transform="matrix(1,0,0,-1,-295.6748,2185.5)" d="M2687.165 1142.353H2704.325V1049.951H2687.165Z" fill="#ffffff"/>
<path transform="matrix(1,0,0,-1,652,216)" d="M0 0C0 0-100 59-202-12-304-83-281-219-281-219-281-219-265.436-338.018-395.492-342.162-413.269-342.729-430.911-337.901-445.582-327.846-453.715-322.272-461.45-314.8-466-305-466-305-362-315-350-207-350-207-412-241-462-183-462-183-381.951-202.289-353-95-329.315-7.225-257.747 40.433-247.681 46.771-246.943 47.237-246.213 47.708-245.482 48.187-238.031 53.066-189.792 82.208-105 79-17.97 75.707 0 0 0 0" fill="#ffffff"/>
<path transform="matrix(1,0,0,-1,698,482)" d="M0 0C0 0 44-10 66-6L43-109C43-109 37-93 38-22 38-22 7-13 0 0M-351.117-218.877C-327.079-208.02-182.74-209.957-71.147-296.528-70.11-297.333-70.687-299-72-299-72-299-237.882-226.245-350.85-220.229-351.59-220.189-351.792-219.182-351.117-218.877M195-526C195-526 189-353 51-284 51-284 62-336 25-354 12.05-360.3-2.982-363.292-17.053-364.521-38.04-366.353-59.18-364.563-79.683-359.723-128.662-348.158-258.5-310.5-352.5-316.5-413.048-320.365-509-343-581-480-581-480-586.5-439.5-535-377-480.002-310.254-380.861-298.546-367.604-296.264-366.618-296.095-365.651-295.813-364.656-295.72-351.5-294.5-304.503-286.238-197.5-309.5-78.586-335.351-69.802-344.094-9.339-340.573-2.394-340.169 4.476-338.66 10.83-335.826 26.716-328.742 44.102-312.132 29.311-273.5 29.311-273.5 15-238-10-230-10-230-1-266-10-270-19-274-43-224-23-176-23-176-128-149-148-66-148-66-82.212-167.136 62.012-182.596 67.239-183.157 72.264-180.072 73.964-175.098 76.389-168 77.036-154.536 71-129L135 42C135 42-8 28-77 65-77 65 128 58 171 90 171 90 96 118 66 162 66 162 14.061 107.14-117.913 79.839-117.814 78.637-117.75 77.425-117.75 76.197-117.75 52.172-137.226 32.697-161.25 32.697-185.274 32.697-204.75 52.172-204.75 76.197-204.75 100.221-185.274 119.697-161.25 119.697-141.184 119.697-124.302 106.106-119.279 87.631-95.159 94.726-1.401 124.571 29 168 29 168-2 255-110 264-218 273-268 208-268 208-268 208-315.832 161.973-309.47 75.062-308.876 66.946-307.054 58.971-304.28 51.321-293.151 20.624-263.823-74.825-313-114-313-114-214-113-63-251-63-251-95.5-240.5-177-188-262.124-133.165-344-133-344-133L-363-163C-363-163-522-168-618-385-618-385-634-357-639-279-644-201-642 1-642 1L-639 282C-639 282-398 260.711-180 417.855-180 417.855-4 277 283 281V-253.45C283-253.45 284-415 195-526M-100-768C51-616 29-367 29-367 112-658-100-768-100-768M-426-644-459-624C-367-587-286-435-286-435-294.5-539.5-426-644-426-644M-180 482C-406 300-698 337-698 337L-695.221-232.654C-694.838-311.123-679.501-388.874-649.359-461.324-620.671-530.278-590-568-590-568-457-755-173-889-173-889 95-742 210-616 274-498 293.787-461.518 307.618-418.993 317.218-379.48 331.232-321.798 338-262.594 338-203.234V337C49 306-180 482-180 482" fill="#ffffff"/>
<path transform="matrix(1,0,0,-1,536.75,378.8032)" d="M0 0C-14.912 0-27-12.088-27-27-27-41.912-14.912-54 0-54 14.912-54 27-41.912 27-27 27-12.088 14.912 0 0 0" fill="#ffffff"/>
</svg>
